<svg width="14" height="14" viewBox="0 0 14 14" fill="none" xmlns="http://www.w3.org/2000/svg">
<path d="M6.965 11.2C7.21 11.2 7.4172 11.1153 7.5866 10.9459C7.756 10.7765 7.84047 10.5695 7.84 10.325C7.84 10.08 7.75553 9.8728 7.5866 9.7034C7.41767 9.534 7.21047 9.44953 6.965 9.45C6.72 9.45 6.51303 9.5347 6.3441 9.7041C6.17517 9.8735 6.09047 10.0805 6.09 10.325C6.09 10.57 6.1747 10.7772 6.3441 10.9466C6.5135 11.116 6.72047 11.2005 6.965 11.2ZM7.07 3.99C7.39667 3.99 7.65917 4.0803 7.8575 4.2609C8.05583 4.4415 8.155 4.67787 8.155 4.97C8.155 5.16833 8.08803 5.36947 7.9541 5.5734C7.82017 5.77733 7.63047 5.99037 7.385 6.2125C7.035 6.51583 6.77833 6.8075 6.615 7.0875C6.45167 7.3675 6.37 7.6475 6.37 7.9275C6.37 8.09083 6.43137 8.22803 6.5541 8.3391C6.67683 8.45017 6.81963 8.50547 6.9825 8.505C7.14583 8.505 7.29167 8.44667 7.42 8.33C7.54833 8.21333 7.63 8.0675 7.665 7.8925C7.7 7.69417 7.77887 7.5103 7.9016 7.3409C8.02433 7.1715 8.22547 6.95287 8.505 6.685C8.86667 6.34667 9.12053 6.0375 9.2666 5.7575C9.41267 5.4775 9.48547 5.16833 9.485 4.83C9.485 4.235 9.2603 3.74803 8.8109 3.3691C8.3615 2.99017 7.7812 2.80047 7.07 2.8C6.58 2.8 6.14553 2.89333 5.7666 3.08C5.38767 3.26667 5.09297 3.5525 4.8825 3.9375C4.80083 4.08917 4.77167 4.23803 4.795 4.3841C4.81833 4.53017 4.9 4.64963 5.04 4.7425C5.19167 4.83583 5.35803 4.865 5.5391 4.83C5.72017 4.795 5.8688 4.69583 5.985 4.5325C6.11333 4.3575 6.2678 4.22333 6.4484 4.13C6.629 4.03667 6.8362 3.99 7.07 3.99ZM7 14C6.04333 14 5.13917 13.8161 4.2875 13.4484C3.43583 13.0807 2.69197 12.582 2.0559 11.9525C1.4203 11.3225 0.918634 10.5817 0.550901 9.73C0.183167 8.87833 -0.000465779 7.96833 8.87199e-07 7C8.87199e-07 6.03167 0.183868 5.12167 0.551601 4.27C0.919334 3.41833 1.421 2.6775 2.0566 2.0475C2.6922 1.4175 3.4356 0.918867 4.2868 0.5516C5.138 0.184333 6.0424 0.000466667 7 0C7.98 0 8.89583 0.183867 9.7475 0.5516C10.5992 0.919333 11.34 1.41797 11.97 2.0475C12.6 2.6775 13.0958 3.41833 13.4575 4.27C13.8192 5.12167 14 6.03167 14 7C14 7.96833 13.8192 8.87833 13.4575 9.73C13.0958 10.5817 12.6 11.3225 11.97 11.9525C11.34 12.5825 10.5992 13.0814 9.7475 13.4491C8.89583 13.8168 7.98 14.0005 7 14ZM7 12.6C8.56333 12.6 9.8875 12.0547 10.9725 10.9641C12.0575 9.8735 12.6 8.55213 12.6 7C12.6 5.44833 12.0575 4.12697 10.9725 3.0359C9.8875 1.94483 8.56333 1.39953 7 1.4C5.47167 1.4 4.15613 1.9453 3.0534 3.0359C1.95067 4.1265 1.39953 5.44787 1.4 7C1.4 8.55167 1.95137 9.87303 3.0541 10.9641C4.15683 12.0552 5.47213 12.6005 7 12.6Z" fill="white"/>
</svg>
