<svg width="14" height="17" viewBox="0 0 14 17" fill="none" xmlns="http://www.w3.org/2000/svg">
<path d="M5.55802 1.06228C5.67423 0.748422 5.87357 0.479634 6.13048 0.290372C6.38738 0.101111 6.69016 0 7 0C7.30984 0 7.61262 0.101111 7.86952 0.290372C8.12643 0.479634 8.32577 0.748422 8.44198 1.06228C9.5921 1.40793 10.6066 2.15659 11.3296 3.19329C12.0527 4.23 12.4443 5.49741 12.4444 6.80088V10.7929L13.8692 13.1285C13.9474 13.2565 13.9923 13.4052 13.9991 13.5589C14.0059 13.7126 13.9744 13.8655 13.908 14.0011C13.8416 14.1368 13.7427 14.2502 13.6219 14.3293C13.5011 14.4083 13.3629 14.4501 13.2221 14.4501H9.69496C9.60131 15.1581 9.27734 15.8056 8.7824 16.2739C8.28747 16.7422 7.65469 17 7 17C6.34531 17 5.71253 16.7422 5.2176 16.2739C4.72266 15.8056 4.39869 15.1581 4.30504 14.4501H0.777881C0.637073 14.4501 0.498899 14.4083 0.378103 14.3293C0.257307 14.2502 0.158419 14.1368 0.0919907 14.0011C0.025562 13.8655 -0.00591549 13.7126 0.000916089 13.5589C0.00774767 13.4052 0.0526321 13.2565 0.130781 13.1285L1.55565 10.7929V6.80088C1.55565 4.06077 3.25117 1.75241 5.55802 1.06228ZM5.90024 14.4501C5.98057 14.6988 6.12951 14.9142 6.32655 15.0665C6.52359 15.2189 6.75902 15.3007 7.00039 15.3007C7.24176 15.3007 7.47719 15.2189 7.67423 15.0665C7.87126 14.9142 8.02021 14.6988 8.10054 14.4501H5.89946H5.90024ZM7 2.55133C5.96862 2.55133 4.97948 2.99905 4.25019 3.79599C3.52089 4.59294 3.11118 5.67383 3.11118 6.80088V11.0504C3.11121 11.2183 3.06574 11.3825 2.98051 11.5221L2.23152 12.7503H11.7677L11.0187 11.5221C10.9338 11.3824 10.8886 11.2182 10.8888 11.0504V6.80088C10.8888 5.67383 10.4791 4.59294 9.74981 3.79599C9.02052 2.99905 8.03138 2.55133 7 2.55133Z" fill="white"/>
</svg>
