<svg width="14" height="14" viewBox="0 0 14 14" fill="none" xmlns="http://www.w3.org/2000/svg">
<path d="M13 7V2C13 1.73478 12.8946 1.48043 12.7071 1.29289C12.5196 1.10536 12.2652 1 12 1H2C1.73478 1 1.48043 1.10536 1.29289 1.29289C1.10536 1.48043 1 1.73478 1 2V12C1 12.2652 1.10536 12.5196 1.29289 12.7071C1.48043 12.8946 1.73478 13 2 13H7" stroke="white" stroke-width="1.33333" stroke-linecap="round" stroke-linejoin="round"/>
<path d="M9.6665 11.6666C10.7711 11.6666 11.6665 10.7712 11.6665 9.66663C11.6665 8.56206 10.7711 7.66663 9.6665 7.66663C8.56193 7.66663 7.6665 8.56206 7.6665 9.66663C7.6665 10.7712 8.56193 11.6666 9.6665 11.6666Z" stroke="white" stroke-width="1.33333"/>
<path d="M11.3332 11L12.9998 12.3334M3.6665 4.33337H10.3332M3.6665 7.00004H6.33317" stroke="white" stroke-width="1.33333" stroke-linecap="round" stroke-linejoin="round"/>
</svg>
