<svg width="14" height="15" viewBox="0 0 14 15" fill="none" xmlns="http://www.w3.org/2000/svg">
<path fill-rule="evenodd" clip-rule="evenodd" d="M4.75 0.500002C5.17569 0.499497 5.59659 0.589819 5.98459 0.764937C6.37259 0.940056 6.71877 1.19594 7 1.5155C7.28123 1.19594 7.62741 0.940056 8.01541 0.764937C8.40341 0.589819 8.82431 0.499497 9.25 0.500002H9.625C9.92337 0.500002 10.2095 0.618529 10.4205 0.829507C10.6315 1.04049 10.75 1.32663 10.75 1.625V2C10.75 2.54675 10.6038 3.059 10.3488 3.5H12.25C12.6478 3.5 13.0294 3.65804 13.3107 3.93934C13.592 4.22065 13.75 4.60218 13.75 5V7.25C13.75 7.5133 13.6807 7.77196 13.549 7.99998C13.4174 8.228 13.228 8.41735 13 8.549V12.5C13 13.0967 12.7629 13.669 12.341 14.091C11.919 14.5129 11.3467 14.75 10.75 14.75H3.25C2.65326 14.75 2.08097 14.5129 1.65901 14.091C1.23705 13.669 1 13.0967 1 12.5V8.549C0.771977 8.41735 0.582624 8.228 0.450971 7.99998C0.319319 7.77196 0.250007 7.5133 0.25 7.25V5C0.25 4.60218 0.408035 4.22065 0.68934 3.93934C0.970644 3.65804 1.35218 3.5 1.75 3.5H3.65125C3.38759 3.04413 3.24916 2.52663 3.25 2V1.625C3.25 1.32663 3.36853 1.04049 3.5795 0.829507C3.79048 0.618529 4.07663 0.500002 4.375 0.500002H4.75ZM11.5 8.75H7.75V13.25H10.75L10.8378 13.2448C11.0052 13.225 11.161 13.1494 11.2802 13.0302C11.3994 12.911 11.475 12.7552 11.4948 12.5878L11.5 12.5V8.75ZM6.25 8.75H2.5V12.5C2.50002 12.6837 2.56747 12.861 2.68954 12.9983C2.81161 13.1356 2.97981 13.2233 3.16225 13.2448L3.25 13.25H6.25V8.75ZM12.25 5H7.75V7.25H12.25V5ZM6.25 5H1.75V7.25H6.25V5ZM4.75 2C4.75 2.39783 4.90804 2.77936 5.18934 3.06066C5.47064 3.34197 5.85218 3.5 6.25 3.5C6.25 3.10218 6.09196 2.72065 5.81066 2.43934C5.52936 2.15804 5.14782 2 4.75 2ZM9.25 2C8.85218 2 8.47064 2.15804 8.18934 2.43934C7.90804 2.72065 7.75 3.10218 7.75 3.5C8.14782 3.5 8.52936 3.34197 8.81066 3.06066C9.09196 2.77936 9.25 2.39783 9.25 2Z" fill="white"/>
</svg>
