<svg version="1.2" xmlns="http://www.w3.org/2000/svg" viewBox="0 0 26 20" width="26" height="20">
	<title>image</title>
	<style>
		.s0 { fill: #55acee } 
	</style>
	<path id="Layer" class="s0" d="m26 2.4q-1.5 0.6-3.1 0.8c1.1-0.7 2-1.7 2.4-2.8q-1.6 0.9-3.4 1.2c-1-1-2.4-1.6-3.9-1.6-2.9 0-5.3 2.3-5.3 5q0 0.6 0.1 1.2c-4.4-0.2-8.4-2.2-11-5.3-0.4 0.8-0.7 1.6-0.7 2.6 0 1.7 0.9 3.3 2.4 4.2-0.9-0.1-1.7-0.3-2.5-0.7q0 0.1 0 0.1c0 2.4 1.9 4.5 4.3 4.9q-1.2 0.4-2.4 0.1c0.7 2 2.7 3.5 5 3.5-1.8 1.4-4.1 2.2-6.6 2.2q-0.7 0-1.3-0.1c2.4 1.5 5.2 2.3 8.2 2.3 9.8 0 15.2-7.7 15.2-14.4q0-0.3-0.1-0.6 1.6-1.1 2.7-2.6z"/>
</svg>