<svg width="11" height="7" viewBox="0 0 11 7" fill="none" xmlns="http://www.w3.org/2000/svg">
<path d="M10.7823 1.38709L5.90633 6.82257C5.84828 6.88709 5.7854 6.93289 5.71768 6.95999C5.64996 6.98709 5.5774 7.00042 5.5 6.99999C5.4226 6.99999 5.35004 6.98644 5.28232 6.95934C5.2146 6.93225 5.15171 6.88666 5.09367 6.82257L0.203166 1.38709C0.0677218 1.23656 -2.60153e-07 1.04839 -2.70024e-07 0.82258C-2.79894e-07 0.596774 0.0725591 0.403226 0.217678 0.241936C0.362797 0.0806455 0.532102 4.53578e-07 0.725593 4.4512e-07C0.919085 4.36663e-07 1.08839 0.0806455 1.23351 0.241936L5.5 4.98386L9.76649 0.241935C9.90193 0.0913978 10.0689 0.0161286 10.2674 0.0161286C10.466 0.0161286 10.6376 0.0967736 10.7823 0.258064C10.9274 0.419354 11 0.607526 11 0.822579C11 1.03763 10.9274 1.2258 10.7823 1.38709Z" fill="#FF40FF"/>
</svg>
